<svg viewBox="0 0 64 64" xmlns="http://www.w3.org/2000/svg"><circle cx="30.5" cy="26.5" fill="#e5efef" r="21.5"/><path d="m15 11.463v1.415" fill="none" stroke="#4c241d" stroke-linecap="round" stroke-linejoin="round" stroke-width="2"/><path d="m15 17.122v1.415" fill="none" stroke="#4c241d" stroke-linecap="round" stroke-linejoin="round" stroke-width="2"/><path d="m11.463 15h1.415" fill="none" stroke="#4c241d" stroke-linecap="round" stroke-linejoin="round" stroke-width="2"/><path d="m17.122 15h1.415" fill="none" stroke="#4c241d" stroke-linecap="round" stroke-linejoin="round" stroke-width="2"/><circle cx="22" cy="23" fill="#4c241d" r="1"/><g stroke-linecap="round" stroke-linejoin="round" stroke-width="2"><path d="m39.518 24a6.925 6.925 0 0 0 -1.518 4.286 5.148 5.148 0 0 0 1.944 3.545 10.422 10.422 0 0 0 14.112 0 5.148 5.148 0 0 0 1.944-3.545 6.925 6.925 0 0 0 -1.518-4.286z" fill="#fc8c29" stroke="#4c241d"/><rect fill="#fc8c29" height="3" rx="1.5" stroke="#4c241d" width="18" x="38" y="21"/><path d="m47 18.5v-4a1.5 1.5 0 0 0 -1.5-1.5h-2a1.5 1.5 0 0 1 -1.5-1.5 1.5 1.5 0 0 1 1.5-1.5h1a1.5 1.5 0 0 0 1.5-1.5v-4.5" fill="none" stroke="#b5a19c"/><path d="m1 35v4l31 21 31-21v-4z" fill="#bd53b5" stroke="#4c241d"/><path d="m43 16h7a1 1 0 0 0 1-1v-6a1 1 0 0 1 1-1 1 1 0 0 0 1-1v-3" fill="none" stroke="#b5a19c"/><path d="m2 39h17" fill="none" stroke="#4c241d"/><path d="m22 39h4" fill="none" stroke="#4c241d"/><path d="m26 47v-8" fill="none" stroke="#4c241d"/><path d="m30 51v-9" fill="none" stroke="#4c241d"/><path d="m34 47v7" fill="none" stroke="#4c241d"/><path d="m39 39h10" fill="none" stroke="#4c241d"/><path d="m3 39h5v24h-5z" fill="#bf7e68" stroke="#4c241d"/><path d="m56 39h5v24h-5z" fill="#bf7e68" stroke="#4c241d"/><path d="m21 29h9a0 0 0 0 1 0 0v2.678a3.322 3.322 0 0 1 -3.322 3.322h-2.356a3.322 3.322 0 0 1 -3.322-3.322v-2.678a0 0 0 0 1 0 0z" fill="#fc8c29" stroke="#4c241d"/><path d="m9 29h9a0 0 0 0 1 0 0v2.678a3.322 3.322 0 0 1 -3.322 3.322h-2.356a3.322 3.322 0 0 1 -3.322-3.322v-2.678a0 0 0 0 1 0 0z" fill="#fc8c29" stroke="#4c241d"/><circle cx="30.5" cy="8.5" fill="none" r="2.5" stroke="#4c241d"/></g></svg>