<svg viewBox="0 0 400 300" xmlns="http://www.w3.org/2000/svg" xmlns:xlink="http://www.w3.org/1999/xlink"><linearGradient id="a" gradientUnits="userSpaceOnUse" x1="104.12" x2="151.94" y1="230.54" y2="193.21"><stop offset="0" stop-color="#fff" stop-opacity="0"/><stop offset=".98" stop-color="#0800bf"/></linearGradient><linearGradient id="b" x1="83.23" x2="129.79" xlink:href="#a" y1="179.7" y2="132.33"/><linearGradient id="c" x1="175.78" x2="199.13" xlink:href="#a" y1="221.98" y2="151.92"/><linearGradient id="d" x1="253.03" x2="276.6" xlink:href="#a" y1="255.51" y2="236.51"/><path d="m178.13 85.67-147.89 86a9.42 9.42 0 0 0 .14 16.37l181 101.31a14.91 14.91 0 0 0 14.34.12l139.09-74.81a11.34 11.34 0 0 0 .35-19.77z" fill="#aaacf9"/><path d="m156.79 217.69c8.28-8.5 17.18-16.37 25.06-25.2l-31.85-16.86-67.57 36.12c12.63 6.62 31.12 20.78 49.17 33.05 8.4-9.04 16.58-18.27 25.19-27.11z" fill="url(#a)" opacity=".32"/><path d="m105.42 179.79c13.91-10.29 27.77-20.66 42.28-30.06l-29.82-15.78-62.82 38.78c9.53 5 17.67 11.63 31.17 21.17 6.38-4.74 12.77-9.4 19.19-14.11z" fill="url(#b)" opacity=".32"/><path d="m184.52 240.26c15-8.07 47.18-39.41 62-47.66l-56.52-29.91-67.5 36.13c15.67 8.18 40.35 28.03 62.02 41.44z" fill="url(#c)" opacity=".32"/><path d="m214.94 150.86-19 9.15a4.38 4.38 0 0 0 -.31 7.72l45.05 26.27a4.38 4.38 0 0 0 5.89-1.41l10.95-17" fill="#56403d"/><path d="m310.42 102.13-155.19-89.4a5 5 0 0 0 -7.57 4.37v95a3.89 3.89 0 0 0 1.95 3.37l165.18 95.35a1.88 1.88 0 0 0 2.82-1.63v-94.62a14.35 14.35 0 0 0 -7.19-12.44z" fill="#68e1fd"/><path d="m157.93 21.14 147 84.58a10.31 10.31 0 0 1 5.17 8.93v68.11a3.72 3.72 0 0 1 -5.57 3.23l-149.93-85.99a3.67 3.67 0 0 1 -1.84-3.18v-72.69a3.45 3.45 0 0 1 5.17-2.99z" fill="#fff"/><ellipse cx="221.35" cy="149.29" fill="#ab643c" rx="1.6" ry=".01" transform="matrix(.98195871 -.18909544 .18909544 .98195871 -24.24 44.57)"/><ellipse cx="298.94" cy="107.8" fill="#659fe4" rx="1.6" ry="1.74"/><ellipse cx="293.84" cy="105.27" fill="#c5e9ff" rx="1.6" ry="1.74"/><path d="m133.75 185.84-.01.95.48.6" fill="#adcee1"/><path d="m152.91 174.34-18.62 11.43a1.15 1.15 0 0 0 0 2l28.12 16.06a2.58 2.58 0 0 0 2.58 0l18.56-10.83c1.35-1.1 1.26-3.18 0-3.27l-28-15.43a2.62 2.62 0 0 0 -2.64.04z" fill="#88d3d8"/><path d="m152.91 173.55-18.62 11.45a1.15 1.15 0 0 0 0 2l28.15 16a2.58 2.58 0 0 0 2.58 0l18.53-10.79a1.43 1.43 0 0 0 0-2.48l-28-16.22a2.62 2.62 0 0 0 -2.64.04z" fill="#fff"/><path d="m153.67 172s7.81-24.86 7.77-24.86.24-1.11 1.62-.47l29.52 17.54s1.43.59 1.15 1.92-7.64 24.33-7.64 24.33a1.25 1.25 0 0 1 -1.4.48c-.9-.28-30.33-17.54-30.33-17.54a1.13 1.13 0 0 1 -.69-1.4z" fill="#053855"/><path d="m161.92 148.93 30.24 17.79-6.37 21.08-30.63-17.27z" fill="#68e1fd"/><path d="m151.76 176.18-6.81 4.2a.82.82 0 0 0 0 1.41l24.32 14a2.4 2.4 0 0 0 2.4 0c1.57-.91 4.27-2.54 5.93-3.55a1 1 0 0 0 0-1.71l-24.47-14.36a1.33 1.33 0 0 0 -1.37.01z" fill="#68e1fd"/><path d="m152.08 187.66 8.49 4.82a.85.85 0 0 1 0 1.48l-5 2.91a1.13 1.13 0 0 1 -1.13 0l-8.69-5a.71.71 0 0 1 0-1.24l5.22-3a1.13 1.13 0 0 1 1.11.03z" fill="#68e1fd"/><path d="m151.76 176.18-6.81 4.2a.82.82 0 0 0 0 1.41l24.32 14a2.4 2.4 0 0 0 2.4 0c1.57-.91 4.27-2.54 5.93-3.55a1 1 0 0 0 0-1.71l-24.47-14.36a1.33 1.33 0 0 0 -1.37.01z" fill="#053855" opacity=".1"/><path d="m152.08 187.66 8.49 4.82a.85.85 0 0 1 0 1.48l-5 2.91a1.13 1.13 0 0 1 -1.13 0l-8.69-5a.71.71 0 0 1 0-1.24l5.22-3a1.13 1.13 0 0 1 1.11.03z" fill="#053855" opacity=".1"/><path d="m119.25 171.72a30.08 30.08 0 0 0 -8.76 12.84c-3.08 8.49 4.61 22.38 4.61 22.38l12-9.46" fill="#ff8f6f"/><path d="m109.63 218a9.06 9.06 0 0 0 6.17 8.56 20 20 0 0 0 7.63 1c5.3-.34 9.94-2.82 13.84-6.24-.74-9.4-3.39-16-5.66-19.15l-14.48-7c-.07 1.31-7.7 10.15-7.52 20.92q.01 1.01.02 1.91z" fill="#3e2928"/><path d="m131.35 186-15.35-.75-2.65 18.45c4.57 3.15 16.64 1.25 19.38.78-.81-6.11-.73-12.38-1.38-18.48z" fill="#ff8f6f"/><path d="m154 183.46-1.54 1.35a39.65 39.65 0 0 1 4-2c.93-.42 1.44 1.08.52 1.5l-.47.22q.74-.28 1.49-.54a.79.79 0 0 1 .52 1.5 41.19 41.19 0 0 0 -3.83 1.53 28.15 28.15 0 0 1 3.43-.86c1-.19 1.09 1.4.1 1.58a25.06 25.06 0 0 0 -3.88 1.05 3.79 3.79 0 0 1 1.19.2c.46.12 1.64.19 1.85.65a.8.8 0 0 1 -.65 1.12l-5.95.61a7.11 7.11 0 0 0 -1.6 1.25 27.61 27.61 0 0 0 -1.91-2.05 22.76 22.76 0 0 0 -1.87-1.64q.88-.84 1.8-1.63c.13-.18.45-.09.81-.39 2-1.72 2.47-1.84 4.65-3.89 1.61-1.6 2.28-.38 1.34.44z" fill="#ffb5a9"/><path d="m126.39 175.06s5.59 1.51 7.86 5.13a63.93 63.93 0 0 1 3.74 7.73l10.16-2.37s2.95 3.45 4.94 5.92c0 0-9.92 7-15.1 8.15s-10.68-7.7-10.68-7.7-1.14 3.66-.92-.25" fill="#ff8f6f"/><path d="m130.48 186.82a11.33 11.33 0 0 1 -3.54-5c-.67-2.28.17-4.29 1-6.42a20.68 20.68 0 0 0 1.46-6.6c.07-2.23-.19-4.45-.34-6.67a.64.64 0 0 1 0-.29c-.74-2.51-2.28-4.63-5.3-4.88-7.81-.66-8.25 8-8.19 11.5s.43 5.89-2.16 7.37-4.46 5.32-2 8.44.25 2-1.39 4.75-1.22 6.23 2.16 7.48 19.1-1.1 20.55-2.56a3 3 0 0 0 .74-2.12 8.24 8.24 0 0 0 -2.99-5z" fill="#007f68"/><path d="m133.39 206.95c1.89-.41 20.21-1.87 24.48 4.5s-19 15.44-34.44 16.17 1.67-18.89 9.96-20.67z" fill="#3e2928"/><path d="m110.18 112.59v31.45l24.36 14.07 19.84-11.8v-29.22" fill="#3aceb2"/><path d="m134.54 158.11v-31.04l19.84-11.62v30.86z" fill="#4be2c5"/><path d="m130.24 100.71-20.06 11.88 24.36 14.48 19.84-11.62z" fill="#52efd1"/><path d="m113.36 117.76v6.51l18.25 10.42v-6.39z" fill="#7374b7"/><ellipse cx="129.54" cy="130.41" fill="#f7931e" rx=".49" ry=".78" transform="matrix(.95599806 -.29337298 .29337298 .95599806 -32.56 43.75)"/><ellipse cx="127.98" cy="129.5" fill="#d9e021" rx=".49" ry=".78" transform="matrix(.95599806 -.29337298 .29337298 .95599806 -32.37 43.25)"/><path d="m126.26 128.78-11.28-6.48" fill="none" stroke="#f2f2f2" stroke-miterlimit="10" stroke-width=".25"/><path d="m112.93 126.89v6.51l18.25 10.41v-6.38z" fill="#7374b7"/><ellipse cx="129.11" cy="139.54" fill="#f7931e" rx=".49" ry=".78" transform="matrix(.95599806 -.29337298 .29337298 .95599806 -35.26 44.02)"/><ellipse cx="127.55" cy="138.63" fill="#d9e021" rx=".49" ry=".78" transform="matrix(.95599806 -.29337298 .29337298 .95599806 -35.06 43.53)"/><path d="m125.83 137.91-11.28-6.48" fill="none" stroke="#f2f2f2" stroke-miterlimit="10" stroke-width=".25"/><path d="m112.93 136v6.51l18.25 10.41v-6.38z" fill="#7374b7"/><ellipse cx="129.11" cy="148.65" fill="#f7931e" rx=".49" ry=".78" transform="matrix(.95599806 -.29337298 .29337298 .95599806 -37.94 44.43)"/><ellipse cx="127.55" cy="147.74" fill="#d9e021" rx=".49" ry=".78" transform="matrix(.95599806 -.29337298 .29337298 .95599806 -37.74 43.93)"/><path d="m125.83 147.02-11.28-6.48" fill="none" stroke="#f2f2f2" stroke-miterlimit="10" stroke-width=".25"/><path d="m154.38 126.26-19.75 11.65-24.45-14.21" fill="none" stroke="#1b1464" stroke-miterlimit="10" stroke-width=".25"/><path d="m154.38 135.37-19.75 11.65-24.45-14.2" fill="none" stroke="#1b1464" stroke-miterlimit="10" stroke-width=".25"/><path d="m334.61 100.36v50.22a5.59 5.59 0 0 1 -8.46 4.8l-47.73-28.47a5.59 5.59 0 0 1 -2.73-4.8v-49.3a5.59 5.59 0 0 1 8.4-4.81l47.73 27.56a5.59 5.59 0 0 1 2.79 4.8z" fill="#a5dd73"/><path d="m262.5 261.86c8.23-5.48 16.6-10.76 24.92-16.09l-11.82-8.63-45.77 19.11c5.53 2.9 13 8.33 20.86 13.86 3.9-2.8 7.81-5.59 11.81-8.25z" fill="url(#d)" opacity=".32"/><path d="m291.91 213.43a2.1 2.1 0 0 0 -.37-.78 4.67 4.67 0 0 0 -1.14-1c-5.81-3.93-13.86-5-20-1.17-1.4.88-3.49 2.87-2.66 4.75.48 1.09 1.94 1.73 3 2.17a44.57 44.57 0 0 0 10.51 2.74c1.3.22 2.62.44 3.93.56a5.43 5.43 0 0 0 4.79-2.05c.88-1.16 2.35-3.51 1.94-5.22z" fill="#754c24"/><path d="m267.57 214.37s5.3 4.8 14.46 4.1 9.87-5 9.87-5-2.37 30.36-3.62 30.88-5.93 2.78-8.19 2.95-9.4-2.69-9.58-3.48-2.94-29.45-2.94-29.45z" fill="#ff8f6f"/><path d="m269.24 170.13c-.28-.57-1.15-.07-.86.5 6.27 12.64 7.49 26.87 8.62 40.69.05.63 1.05.64 1 0-1.14-14.01-2.4-28.39-8.76-41.19z" fill="#007f68"/><path d="m268.44 170.25s1.75 6.56-.06 9.84-3.3 3.93-1.14 8 7.94 4.62 8.32 7.74-2.76-20.01-7.12-25.58z" fill="#007f68"/><path d="m288.49 182.09a82.45 82.45 0 0 0 -8 32.26c0 .78 1.19.77 1.22 0a81 81 0 0 1 7.79-31.66c.38-.69-.67-1.31-1.01-.6z" fill="#007f68"/><path d="m289.35 185.29c0-.66-.15-2-.08-3.11l-.7.44c-2.38 5.79-5.94 19.39-7 23.55 1.45-3.12 7.38-3.55 9.12-8a8.19 8.19 0 0 0 .1-5.91 21.82 21.82 0 0 1 -1.44-6.97z" fill="#007f68"/><g fill="none" stroke-miterlimit="10"><path d="m300.54 94.7-15.47 11.37 13.87 19.47" stroke="#006837" stroke-width="4"/><path d="m314.23 102.91 11.38 22.24-16.01 7.47" stroke="#006837" stroke-width="4"/><path d="m161 34.44 90.16 51.23" stroke="#00a99d" stroke-width="4"/><path d="m161.33 47.84 14.59 8.29" stroke="#d4145a" stroke-width="4"/><path d="m180.25 58.93 81.13 44.6" stroke="#29abe2" stroke-width="4"/><path d="m161 60.05 31.16 17.19" stroke="#f7931e" stroke-width="4"/><path d="m197.33 80.5 68.32 36.54" stroke="#00a99d" stroke-width="4"/></g></svg>