<svg viewBox="0 0 500 500" xmlns="http://www.w3.org/2000/svg"><path d="m306 437.92h-98.3a.5.5 0 1 1 0-1h98.3a.5.5 0 0 1 0 1z" fill="#404b7c"/><path d="m368 441.33h-72.5a.5.5 0 0 1 0-1h72.5a.5.5 0 1 1 0 1z" fill="#404b7c"/><path d="m279.51 445.17h-35a.5.5 0 1 1 0-1h35a.5.5 0 0 1 0 1z" fill="#404b7c"/><path d="m430.13 437.42s13.07-5.67 14.6-12.63-8.67-10.23-15.61.46a122.55 122.55 0 0 1 -9.66 12.17z" fill="#9ab3da"/><path d="m388.37 437.42s-12.5-12.09-13.37-26.92 14-12 17.17-1.17 6.83 28.09 6.83 28.09z" fill="#404b7c"/><path d="m393 436.33a.5.5 0 0 1 -.43-.24c-6.57-10.94-11.63-30.93-11.69-31.09a.5.5 0 0 1 1-.24c0 .2 5.06 20 11.61 30.85a.5.5 0 0 1 -.49.72z" fill="#9ab3da"/><path d="m396.7 437.42s-6.17-20.75 3.33-46.58 27.5-25.33 27.5-12.5-15.67 43.5-20.67 59.08z" fill="#9ab3da"/><path d="m401.12 436.33a.5.5 0 0 1 -.45-.54c3-33.38 17.54-61.12 17.68-61.4a.5.5 0 0 1 .88.47c-.15.27-14.61 27.85-17.57 61a.5.5 0 0 1 -.54.47z" fill="#404b7c"/><path d="m404.25 437.42s5.5-23 16.88-39.32 22-23 27.75-20.1-3.75 44.09-29.12 59.42h-15.5z" fill="#404b7c"/><path d="m413.75 436.33a.5.5 0 0 1 -.41-.78c.2-.29 20.11-29.57 31.59-52.53a.5.5 0 1 1 .89.45c-11.51 23-31.46 52.35-31.66 52.64a.5.5 0 0 1 -.41.22z" fill="#9ab3da"/><path d="m51.19 144.77 22.58-3.77c-5.35.9-8.94 6.39-8.06 12.38l-22.58 3.8c-.88-6.02 2.71-11.51 8.06-12.41z" fill="#ecbdbb"/><path d="m188.67 124.82c5.47-.77 10.63 3.55 11.52 9.63l34.81 239.07c.89 6.09-2.84 11.65-8.31 12.41l-114.6 16.07c-5.48.77-10.63-3.54-11.52-9.63l-34.86-239.02c-.89-6.08 2.83-11.64 8.31-12.41z" fill="#f68d88"/><path d="m183 135.9c5.47-.77 10.62 3.54 11.51 9.62l31.92 218.92c.89 6.09-2.83 11.65-8.31 12.42l-100.37 14.14c-5.48.77-10.64-3.54-11.53-9.64l-31.92-218.93c-.89-6.09 2.83-11.66 8.31-12.43l36.16-5.08a7.42 7.42 0 0 1 7.23 3.35 8.43 8.43 0 0 0 8.16 4 8.32 8.32 0 0 0 6.7-6.07 7.33 7.33 0 0 1 6-5.21z" fill="#9ab3da"/><path d="m132.33 139.64a3.21 3.21 0 0 1 3.46 2.89 3.17 3.17 0 0 1 -2.49 3.74 3.22 3.22 0 0 1 -3.47-2.9 3.18 3.18 0 0 1 2.5-3.73z" fill="#404b7c"/><path d="m100.57 392.42-22.58 3.8-34.86-239.07 22.58-3.8z" fill="#d66767"/><path d="m112.09 402-22.58 3.8c-5.48.77-10.63-3.54-11.52-9.63l22.58-3.8c.89 6.14 6.04 10.45 11.52 9.63z" fill="#b74949"/><path d="m177.54 162.81a4.07 4.07 0 0 1 4.39 3.66l9.58 65.7a4 4 0 0 1 -3.17 4.73l-82 11.52a4.07 4.07 0 0 1 -4.38-3.66l-9.58-65.7a4 4 0 0 1 3.16-4.73z" fill="#e9f3ff"/><path d="m161.3 247.49a2.36 2.36 0 0 1 2.54 2.12l.16 1.19a2.33 2.33 0 0 1 -1.83 2.73l-3.54.5a2.36 2.36 0 0 1 -2.54-2.12l-.17-1.19a2.33 2.33 0 0 1 1.83-2.73z" fill="#404b7c"/><path d="m199.13 299.72a2.36 2.36 0 0 1 2.55 2.13l.17 1.18a2.34 2.34 0 0 1 -1.84 2.74l-46.49 6.53a2.36 2.36 0 0 1 -2.55-2.13l-.17-1.17a2.33 2.33 0 0 1 1.84-2.74z" fill="#e9f3ff"/><path d="m181.72 339c4.28-.6 8.33 2.77 9 7.53l.54 3.68c.69 4.76-2.22 9.11-6.51 9.71l-39.83 5.6c-4.28.6-8.33-2.77-9-7.53l-.54-3.68c-.69-4.76 2.22-9.11 6.51-9.71z" fill="#e9f3ff"/><path d="m142.25 320.37a2.37 2.37 0 0 1 2.55 2.13l.17 1.19a2.33 2.33 0 0 1 -1.84 2.74l-26.5 3.72a2.36 2.36 0 0 1 -2.53-2.15l-.17-1.19a2.33 2.33 0 0 1 1.83-2.74z" fill="#404b7c"/><path d="m192.57 257.51a2.78 2.78 0 0 1 3 2.51l2.83 19.4a2.75 2.75 0 0 1 -2.17 3.24l-17.44 2.45a2.79 2.79 0 0 1 -3-2.51l-2.79-19.41a2.75 2.75 0 0 1 2.17-3.24z" fill="#e9f3ff"/><path d="m159.1 262.21a2.78 2.78 0 0 1 3 2.51l2.83 19.4a2.75 2.75 0 0 1 -2.17 3.24l-17.45 2.45a2.79 2.79 0 0 1 -3-2.51l-2.83-19.4a2.75 2.75 0 0 1 2.17-3.24z" fill="#e9f3ff"/><path d="m149.4 249.17a2.36 2.36 0 0 1 2.55 2.12l.17 1.19a2.33 2.33 0 0 1 -1.84 2.74l-26.49 3.72a2.36 2.36 0 0 1 -2.55-2.12l-.17-1.19a2.33 2.33 0 0 1 1.84-2.74z" fill="#404b7c"/><path d="m125.63 266.91a2.79 2.79 0 0 1 3 2.51l2.83 19.4a2.76 2.76 0 0 1 -2.17 3.24l-17.44 2.45a2.79 2.79 0 0 1 -3-2.51l-2.85-19.4a2.75 2.75 0 0 1 2.17-3.24z" fill="#e9f3ff"/><path d="m140.45 308a2.36 2.36 0 0 1 2.55 2.1l.17 1.18a2.33 2.33 0 0 1 -1.84 2.74l-26.5 3.72a2.36 2.36 0 0 1 -2.54-2.13l-.17-1.18a2.33 2.33 0 0 1 1.83-2.74z" fill="#404b7c"/><path d="m173.73 245.75a2.36 2.36 0 0 1 2.54 2.12l.17 1.19a2.33 2.33 0 0 1 -1.83 2.73l-3.54.5a2.36 2.36 0 0 1 -2.54-2.12l-.17-1.17a2.33 2.33 0 0 1 1.83-2.73z" fill="#404b7c"/><path d="m200.93 312.12a2.37 2.37 0 0 1 2.55 2.13l.17 1.19a2.33 2.33 0 0 1 -1.84 2.74l-46.49 6.53a2.36 2.36 0 0 1 -2.55-2.12l-.17-1.19a2.34 2.34 0 0 1 1.84-2.74z" fill="#e9f3ff"/><path d="m146.37 235.87a0 0 0 0 0 0 0z" fill="#9ab3da"/><path d="m169.55 171.85-25.71 3.62c-3.4.48-5.71 3.92-5.16 7.71-.55-3.79-3.76-6.46-7.16-6l-25.71 3.61 7.69 52.73 25.71-3.62c3.39-.47 6.59 2.18 7.15 5.94-.52-3.77 1.79-7.19 5.17-7.67l25.71-3.61zm-46 40.28-2.69-18.48 14.52 7.4z" fill="#9ab3da"/><path d="m145 227.08a.5.5 0 0 1 -.49-.43l-6-41.35a.5.5 0 1 1 1-.14l6 41.35a.5.5 0 0 1 -.42.57z" fill="#404b7c"/><path d="m177.23 224.58 1 6.85-63.73 9-1-6.85 25.71-3.61c3.4-.48 6.6 2.19 7.16 6-.55-3.79 1.76-7.23 5.16-7.71z" fill="#404b7c"/><path d="m274.44 394.08-.31 4.68-.61 8.91h-7.83l-.31-5.55-.44-7.54z" fill="#ecbdbb"/><path d="m274.45 394.08-.32 4.68c-2.57 1-5.9 2.31-8.75 3.36l-.43-7.54z" fill="#404b7c"/><path d="m279.51 422.57a15.83 15.83 0 0 0 -7.5 5.11 22.43 22.43 0 0 1 2.06 9.74h4.21s1.15-9.42 1.23-14.85z" fill="#404b7c"/><path d="m279.51 422.57a15.85 15.85 0 0 0 -7.5 5.11l-.06.07a42.29 42.29 0 0 1 -7.52 7.32 11.94 11.94 0 0 1 -7.11 2.35h-15.87s-.49-5.44 5.16-9.25c6.67-4.5 12.17-12.5 14.84-22.92a67.28 67.28 0 0 1 14.41 0s3.54 11.08 3.65 16.17c.01.35.01.74 0 1.15z" fill="#f68d88"/><path d="m299.85 250.09c-.3 2-.63 3.69-1 5.16-1.62 6.9-5.09 18.82-8.53 30.14-4.52 14.95-9 28.86-9 28.86s1.25 14.75 2.25 26.5-5 56-5 56c-6.25 1.5-16.75.5-16.75.5s-7.75-59.5-8.5-85.25-.25-67 1-81.75 0-36.23 18.75-37.25c29.11-1.59 29.72 37.85 26.78 57.09z" fill="#9ab3da"/><path d="m273.37 394.58h-.06a.5.5 0 0 1 -.43-.56c0-.32 4-31.66 3.64-42-.1-2.91-.38-6.92-.67-11.18-.78-11.27-1.75-25.3-.29-30.8 2-7.4 12.55-61.26 12.66-61.8a.5.5 0 1 1 1 .19c-.11.54-10.69 54.44-12.67 61.87-1.42 5.34-.46 19.27.32 30.47.29 4.26.57 8.29.67 11.21.35 10.42-3.61 41.84-3.65 42.16a.5.5 0 0 1 -.52.44z" fill="#404b7c"/><path d="m299.85 250.09c-.3 2-.63 3.69-1 5.16-1.62 6.9-5.09 18.82-8.53 30.14l-5.88-39.15 14.41 2.09z" fill="#404b7c"/><path d="m351.54 394.08-.32 4.68-.6 8.91h-7.83l-.32-5.55-.43-7.54z" fill="#ecbdbb"/><path d="m351.54 394.08-.32 4.68c-2.57 1-5.9 2.31-8.75 3.36l-.47-7.54z" fill="#404b7c"/><path d="m356.6 422.57a15.83 15.83 0 0 0 -7.5 5.11 22.43 22.43 0 0 1 2.06 9.74h4.21s1.15-9.42 1.23-14.85z" fill="#404b7c"/><path d="m356.6 422.57a15.85 15.85 0 0 0 -7.5 5.11l-.06.07a42.29 42.29 0 0 1 -7.52 7.32 11.94 11.94 0 0 1 -7.11 2.35h-15.87s-.49-5.44 5.16-9.25c6.67-4.5 12.17-12.5 14.84-22.92a67.28 67.28 0 0 1 14.41 0s3.54 11.08 3.65 16.17c.01.35.01.74 0 1.15z" fill="#f68d88"/><path d="m279.62 201.5s8.5 51.5 9.75 55 28 55.25 32.25 66.25 16.5 74 16.5 74 10 .75 17-.75c0 0 2.75-40.75.75-57.25s-4.75-21.75-8-32.75-8-63.25-10.75-76.75-5.25-23.75-11.75-31.75-48.25-25-45.75 4z" fill="#9ab3da"/><path d="m328.12 227c-15 0-18.37-17.27-18.41-17.45a.5.5 0 1 1 1-.18c.13.72 3.43 17.56 18.64 16.59a.49.49 0 0 1 .53.47.5.5 0 0 1 -.47.53c-.41.04-.87.04-1.29.04z" fill="#404b7c"/><path d="m350.12 393.75a.5.5 0 0 1 -.47-.53c0-.35 2-35.63 1.25-48.94-.45-8.09-4-18.58-7.17-27.83-2-6-3.82-11.22-4.32-14.62-.36-2.48-1.27-9.39-2.43-18.14-2.79-21.18-7-53.19-8.06-57.06-1.48-5.42-6.11-19-6.16-19.14a.5.5 0 0 1 .95-.32c0 .14 4.69 13.74 6.17 19.2 1.07 3.93 5.29 36 8.09 57.19 1.15 8.75 2.06 15.65 2.42 18.12.49 3.31 2.24 8.47 4.28 14.45 3.17 9.31 6.77 19.87 7.22 28.1.74 13.37-1.23 48.7-1.25 49.06a.5.5 0 0 1 -.52.46z" fill="#404b7c"/><path d="m287.37 247.5h-.08c-.26 0-6.3-1.08-7.39-4-1-2.67-8.05-36.47-8.35-37.91a.5.5 0 1 1 1-.2c.07.35 7.34 35.16 8.31 37.76.65 1.72 4 2.8 5.92 3.21l-7.21-41.79a.5.5 0 0 1 1-.17l7.33 42.5a.5.5 0 0 1 -.53.6z" fill="#404b7c"/><path d="m205 189.08-6.42 2.58s-11.17-2.29-13.17-3.46-3.21.75-1.33 2.67a30.52 30.52 0 0 0 5.21 3.88 58.11 58.11 0 0 1 -9.5 3.42c-3.79.79-6.54.83-6.62 2.42s2.21 2 2.21 2-1.79.46-1.5 2 4 1.21 4 1.21-1.87.71-1.46 1.92 4.38.79 4.38.79a1.25 1.25 0 0 0 -.33 1.88c.88 1.08 15 .06 21.56-10.94l8.75-2.44z" fill="#ecbdbb"/><path d="m176.91 202.83a.5.5 0 0 1 -.09-1c.06 0 5.68-1 9-2a.5.5 0 0 1 .29 1c-3.41 1-9.09 2-9.14 2.06h-.09z" fill="#404b7c"/><path d="m179.58 205.88a.5.5 0 0 1 -.13-1s5-1.34 8.24-2.61a.5.5 0 1 1 .36.93c-3.32 1.29-8.29 2.63-8.34 2.64z" fill="#404b7c"/><path d="m181.82 208.58a.5.5 0 0 1 -.14-1 73 73 0 0 0 7.91-2.85.5.5 0 1 1 .42.91 74 74 0 0 1 -8 2.9z" fill="#404b7c"/><path d="m211.87 181.5-7.87 4.92s-2.33 9.58 5.67 14.42l10.83-2.25s2.62-13.76-8.63-17.09z" fill="#9ab3da"/><path d="m265.91 152.49c-1.46 14.65-4 30.33-7.79 32.39-2.17 1.19-7.58 2.95-13.76 4.75-12 3.48-26.87 7.12-26.87 7.12-4.87-3.75-4.87-13-4.87-13l30.75-15.75s.38-7.88 1.25-17.88-1.31-25.24 5.87-31.87c8.13-7.5 16.76-.25 16.88 10 .05 4.22-.43 13.98-1.46 24.24z" fill="#f68d88"/><path d="m265.91 152.49c-1.46 14.65-4 30.33-7.79 32.39-2.17 1.19-7.58 2.95-13.76 4.75 5.74-9.93 17.45-30.18 21.55-37.14z" fill="#404b7c"/><path d="m266 60.19s10.92-6.67 19.5.25 8.6 16.56 8.44 23.84 9.58 6.17 14.83 13.17 5.88 23.5-13 28.75-33.5-1.12-38-10.37 3.57-12.92 4.13-16c.79-4.37-6.21-6.71-1.71-13s-3-17.17-3-17.17a17.09 17.09 0 0 1 8.81-9.47z" fill="#404b7c"/><path d="m333 207.12s-3.53 1-9.14 2.13c-8.9 1.87-23 4.3-36.6 4.37-22.13.13-31.76-5.87-31.76-5.87 1.38-11.25.76-36.75.76-36.75s-8.26-14.38-8.26-17.75 4.63-24.75 4.63-24.75l-2.13-10.25s17.1-14.63 29.85-15.63c14.41-1.12 32.53 7.5 32.53 7.5s2.88 16.26 4.5 22.63c.94 3.69 6 28 10.15 47.9 2.98 14.43 5.47 26.47 5.47 26.47z" fill="#f68d88"/><path d="m333 207.12s-3.53 1-9.14 2.13c-12.05-11.08-27.11-25-28.73-26.75l32.4-1.85c2.98 14.43 5.47 26.47 5.47 26.47z" fill="#404b7c"/><path d="m256.38 183a.5.5 0 0 1 -.5-.5c0-5.88-.12-10.55-.14-11.36-.83-1.45-8.25-14.54-8.25-17.89s4.23-23 4.61-24.75l-1.61-7.77a.5.5 0 0 1 1-.2l1.63 7.88a.48.48 0 0 1 0 .21c0 .21-4.61 21.36-4.61 24.64 0 2.66 5.91 13.53 8.18 17.5a.51.51 0 0 1 .07.24s.12 5.06.14 11.51a.5.5 0 0 1 -.5.5z" fill="#ecbdbb"/><path d="m278.9 100.19c-6.8.44-10.12 7.5-11.19 16.5 0 0 4.88-3.44 8.69-3.94s11.44 2.94 11.44 2.94 3.49-16.31-8.94-15.5z" fill="#9ab3da"/><path d="m274.29 168.58s-14.17-4.58-14.67-4.67-18.92 3.5-19.5 4.17a1.31 1.31 0 0 0 .67 1.92c.67.33 11.08-.83 11.08-.83a40.14 40.14 0 0 0 -.92 3.92c0 .58 3.08 5.58 4.92 6a7.28 7.28 0 0 0 3.75-.33l1.33-1.08a15.6 15.6 0 0 0 3.17.5c.83-.08 2.5-1.75 2.5-1.75l6.17 2.33z" fill="#ecbdbb"/><path d="m253.08 174.92h-.15a.5.5 0 0 1 -.33-.63l1.71-5.54a.5.5 0 1 1 1 .29l-1.71 5.54a.5.5 0 0 1 -.52.34z" fill="#404b7c"/><path d="m255.12 177.21a.5.5 0 0 1 -.5-.5c0-.14 0-.23 2.63-6.08a.5.5 0 0 1 .91.41c-.92 2.06-2.42 5.41-2.55 5.79a.5.5 0 0 1 -.49.38z" fill="#404b7c"/><path d="m283.79 167.33s3.58 11.58-5.83 19.92l-8.33-4.58s-2.25-12 5-16.33z" fill="#9ab3da"/><path d="m326.62 200.62c-11.44 1.84-41.33-12.91-49.28-17a19 19 0 0 1 3.7-14.15l34.08 4.28s-6.5-20.65-11.13-35-.44-31.53 8.88-28.63c15.25 4.76 20.25 29.5 23 50.76s4 37.62-9.25 39.74z" fill="#f68d88"/><path d="m315.12 174.27h-.06l-34.06-4.27a.5.5 0 1 1 .13-1l33.31 4.18c-1.21-3.83-6.81-21.6-10.89-34.27-2.91-9-2.44-19.79 1.1-25.56a.5.5 0 1 1 .85.52c-3.41 5.55-3.83 15.95-1 24.73 4.58 14.21 11.07 34.82 11.13 35a.5.5 0 0 1 -.51.67z" fill="#ecbdbb"/><path d="m324.45 201.28c-12.71 0-39.14-13-47.33-17.19a.5.5 0 1 1 .46-.89c6.16 3.15 37.44 18.78 49 16.93l.87-.17a.5.5 0 0 1 .21 1l-.93.18a14.27 14.27 0 0 1 -2.28.14z" fill="#ecbdbb"/><path d="m328.79 184.08a.5.5 0 0 1 -.45-.29c-2.38-5.16-11-8.12-11-8.15a.5.5 0 0 1 .32-.95c.37.13 9.07 3.13 11.63 8.68a.5.5 0 0 1 -.5.71z" fill="#ecbdbb"/><path d="m283 104.69a7.09 7.09 0 0 1 -4.31 3.31 5 5 0 0 1 -4.57-1.43l-.53-4.5-.78-6.57 7.19-4.63.73 3.72z" fill="#ecbdbb"/><path d="m280.73 94.58a9.42 9.42 0 0 1 -7.18 7.49l-.78-6.57 7.23-4.63z" fill="#404b7c"/><path d="m267.19 64.86c-7.76 2.12-9.75 9.42-3.5 24.92 4.43 11 15.25 10.14 18.33-3.44 3.49-15.34-6.92-23.65-14.83-21.48z" fill="#ecbdbb"/><path d="m255.6 81s11.92-2.13 17.5-11.3c0 0 .42 5.33 4.75 7.75l1.42 6.42s6.42-3.42 4.33-13.58-12.21-17.08-22.67-10.92c-11.54 6.8-5.33 21.63-5.33 21.63z" fill="#404b7c"/><path d="m280.4 82.86a5.16 5.16 0 0 1 3.18-5.7 3.4 3.4 0 0 1 2.69 0c3 1.42 2.42 9.92-5 11.08z" fill="#ecbdbb"/><path d="m283 86a.5.5 0 0 1 -.49-.41c0-.24-1.08-5.91 2.64-7.3a.5.5 0 1 1 .35.94c-2.94 1.1-2 6.13-2 6.18a.5.5 0 0 1 -.4.58h-.1z" fill="#404b7c"/><path d="m285.79 83.1a.5.5 0 0 1 -.41-.21 4.42 4.42 0 0 0 -2.27-1.49.5.5 0 1 1 .25-1 5.36 5.36 0 0 1 2.83 1.87.5.5 0 0 1 -.4.83z" fill="#404b7c"/><rect fill="#9ab3da" height="11.13" rx="1.1" width="3.51" x="264.48" y="37"/><rect fill="#9ab3da" height="11.12" rx="1.1" transform="matrix(.70710678 -.70710678 .70710678 .70710678 38.64 191.48)" width="3.51" x="248.7" y="43.54"/><rect fill="#9ab3da" height="11.12" rx="1.1" transform="matrix(.70710678 .70710678 -.70710678 .70710678 117.32 -185.04)" width="3.51" x="280.27" y="43.54"/><path d="m331.18 114s7.11.87 12.87-1.78a24.22 24.22 0 1 0 -7.61-6.32c-1.02 2.24-3.07 6.24-5.26 8.1z" fill="#9ab3da"/><path d="m359.47 88.15a.54.54 0 0 0 .67-.82 8.21 8.21 0 0 0 -6.47-2.63c-6.54 0-2.08 7.83-1 9.67s3.63 6.13 3.46 7.46c-.14 1.12-2.39 1.74-3.75-.08a.54.54 0 0 0 -1 .35 5.24 5.24 0 0 0 2.51 4.14c3.71 2.67 9.93 0 9-5.58-.58-3.38-5.46-9.38-6-11.83-.48-1.62 1.05-1.49 2.58-.68z" fill="#e9f3ff"/><circle cx="353.84" cy="77.82" fill="#e9f3ff" r="3.38"/><path d="m276.15 78.11s-2.23-2.92-4.45-1.21a.81.81 0 0 0 -.86-.61c-.65.11-.32 2.13-.32 2.13a14.15 14.15 0 0 1 5.63-.31z" fill="#404b7c"/><path d="m262.64 82.34s-.45-3.33 1.64-2.79a.77.77 0 0 1 .33-.77c.69-.26 1.21 1.61 1.21 1.61a6 6 0 0 0 -3.18 1.95z" fill="#404b7c"/><ellipse cx="273.42" cy="82.61" fill="#404b7c" rx="1.38" ry="1.71" transform="matrix(.97499445 -.22222923 .22222923 .97499445 -11.52 62.82)"/><circle cx="272.98" cy="82.08" fill="#fff" r=".37" transform="matrix(.97499445 -.22222923 .22222923 .97499445 -11.41 62.71)"/><ellipse cx="265.48" cy="84.41" fill="#404b7c" rx="1.38" ry="1.71" transform="matrix(.97499445 -.22222923 .22222923 .97499445 -12.12 61.1)"/><circle cx="265.05" cy="83.89" fill="#fff" r=".37" transform="matrix(.98 -.22 .22 .98 -12.01 60.99)"/><path d="m269.39 89.41a1.94 1.94 0 0 1 -1.68-.84 1.25 1.25 0 0 1 -.18-1.21 2.46 2.46 0 0 1 1.47-1.18l-.62-2.81a.5.5 0 0 1 1-.21l.72 3.26a.5.5 0 0 1 -.37.59 2.22 2.22 0 0 0 -1.28.71.28.28 0 0 0 .08.28c.55.81 1.87.16 1.88.15a.5.5 0 0 1 .45.89 3.45 3.45 0 0 1 -1.47.37z" fill="#404b7c"/><path d="m270.47 92.38s4.07 1.62 5.48-3.28z" fill="#fff"/><circle cx="310.87" cy="50.7" fill="#e9f3ff" r="9.75"/><path d="m322.32 42a1.56 1.56 0 0 1 0 2.21l-10.32 10.25a1.56 1.56 0 0 1 -2.21 0l-4.91-4.91a1.57 1.57 0 0 1 2.21-2.21l3.8 3.8 9.23-9.14a1.56 1.56 0 0 1 2.2 0z" fill="#f68d88"/><path d="m408.18 144.9v20.33a8.25 8.25 0 0 1 -8.25 8.25h-26.08l-12.33 12.34v-12.34h-2.32a8.25 8.25 0 0 1 -8.25-8.25v-20.33a8.25 8.25 0 0 1 8.25-8.25h40.73a8.25 8.25 0 0 1 8.25 8.25z" fill="#e9f3ff"/><rect fill="#9ab3da" height="3.5" rx="1.04" width="6.08" x="361.85" y="161.29"/><rect fill="#9ab3da" height="3.5" rx="1.04" width="28.42" x="361.85" y="152.79"/><rect fill="#9ab3da" height="3.5" rx="1.04" width="13.17" x="361.85" y="144.29"/><path d="m235.85 94.22s-9.12 1.11-16.51-2.28a31.07 31.07 0 1 1 9.76-8.11c1.31 2.84 3.9 7.97 6.75 10.39z" fill="#f68d88"/><path d="m197.47 60.5s6.33-3.75 8-9.17 6.25-2.5 6 1.42a17.34 17.34 0 0 1 -1.5 6.33h10.42c2.33 0 2.42 5.08 0 5.75 0 0 2.42 3.92-1.08 6.5a4.19 4.19 0 0 1 -1.42 4.92s.67 3.92-3.83 4.33-17.06-1.92-17.06-1.92z" fill="#fff"/><rect fill="#9ab3da" height="21.92" rx="1.58" width="11.75" x="187.3" y="58"/><circle cx="155.15" cy="105.25" fill="#e9f3ff" r="16.06"/><path d="m155.15 113.25c13.58-6.5 9-15.25 5.67-15.92s-5.67 2.5-5.67 2.5-2.33-3.17-5.67-2.5-7.91 9.42 5.67 15.92z" fill="#f68d88"/><g fill="#e9f3ff"><circle cx="212.26" cy="108.11" r="3.66"/><circle cx="198.44" cy="113.6" r="1.81"/><circle cx="164.96" cy="422.89" r="6.8"/><circle cx="146.56" cy="414.35" r="3.37"/><circle cx="368.17" cy="207.98" r="5.65"/><circle cx="352.89" cy="200.88" r="2.8"/><ellipse cx="386.43" cy="383" rx="2.81" ry="3.88" transform="matrix(.96606121 -.25831325 .25831325 .96606121 -85.83 112.85)"/><ellipse cx="393.74" cy="370.94" rx="2.1" ry="2.9" transform="matrix(.99093637 -.1343321 .1343321 .99093637 -46.25 56.24)"/><ellipse cx="437.98" cy="363.56" rx="4.66" ry="3.38" transform="matrix(.29103617 -.95671205 .95671205 .29103617 -37.32 676.75)"/><ellipse cx="451.5" cy="411.38" rx="4.66" ry="3.38" transform="matrix(.59159111 -.80623815 .80623815 .59159111 -147.28 532)"/><ellipse cx="461.5" cy="405.38" rx="2.61" ry="1.9" transform="matrix(.59159111 -.80623815 .80623815 .59159111 -138.35 537.61)"/></g></svg>